<svg width="720" height="720" viewBox="0 0 720 720" fill="none" xmlns="http://www.w3.org/2000/svg">
<path d="M592.5 0H127.5C57.0837 0 0 58.5474 0 130.769V589.231C0 661.453 57.0837 720 127.5 720H592.5C662.916 720 720 661.453 720 589.231V130.769C720 58.5474 662.916 0 592.5 0Z" fill="#FFE01B"/>
<path fill-rule="evenodd" clip-rule="evenodd" d="M534.226 412.8C539.955 412.8 549 419.425 549 435.486C549 451.346 542.467 469.415 540.96 473.33C517.04 530.347 460.558 562.168 393.221 560.16C330.508 558.253 276.94 525.027 253.523 470.82C238.723 470.429 224.559 464.727 213.624 454.759C202.334 445.1 195.088 431.558 193.322 416.815C192.191 406.657 193.465 396.376 197.041 386.801L183.875 375.658C123.573 324.463 312.015 114.263 372.116 167.064L392.618 187.241L403.875 182.523C456.739 160.439 499.553 171.079 499.653 206.213C499.653 224.382 488.096 245.663 469.503 264.937C476.236 271.16 481.563 280.998 484.779 292.04C487.292 300.372 487.794 308.804 487.995 314.124L488.699 339.219L496.136 341.227C510.407 345.242 520.457 350.563 525.382 355.782C530.407 361.002 532.719 366.021 533.623 371.844C534.798 379.836 532.816 387.971 528.095 394.53C528.095 394.53 529.704 398.043 531.312 403.062L534.126 412.8H534.226ZM534.93 440.806C536.437 431.27 534.327 427.656 531.412 425.849C528.397 423.942 524.779 424.645 524.779 424.645C524.779 424.645 523.07 413.301 518.447 402.962C504.798 413.258 489.364 420.949 472.92 425.648C457.241 430.166 435.935 433.679 412.216 432.173C399.05 431.169 390.307 427.255 387.091 437.995C417.141 449.037 449 444.319 449 444.319C449.603 444.319 450.106 444.721 450.206 445.323C450.206 445.825 450.005 446.327 449.503 446.528C449.503 446.528 425.081 457.871 386.186 445.825C387.191 454.96 396.136 459.076 400.357 460.782C405.684 462.79 411.613 463.794 411.613 463.794C459.754 472.125 504.779 444.52 514.93 437.494C515.633 436.992 516.136 437.493 515.533 438.497L514.528 439.802C502.166 455.863 468.799 474.534 425.382 474.534C406.488 474.534 387.593 467.809 380.658 457.47C369.804 441.609 380.055 418.321 398.045 420.73L405.885 421.633C433.799 424.307 461.933 419.779 487.593 408.483C512.116 397.04 521.362 384.391 519.955 374.353C519.495 371.191 518.013 368.265 515.734 366.021C509.054 360.5 501.115 356.707 492.618 354.979C488.699 353.976 486.085 353.173 483.271 352.269C478.246 350.563 475.633 349.258 475.131 339.721L473.824 314.927C473.422 304.387 472.116 290.032 463.271 284.11C461.004 282.589 458.362 281.72 455.633 281.6C453.02 281.6 451.613 282.002 451.111 282.102C446.086 282.905 443.07 285.615 439.251 288.828C435.101 292.583 430.217 295.441 424.907 297.22C419.597 298.999 413.976 299.662 408.397 299.167C402.166 298.866 395.533 297.862 387.995 297.46L383.573 297.159C366.186 296.356 347.392 311.414 344.377 332.895C339.955 362.809 361.463 378.268 367.794 387.403C368.598 388.407 369.503 390.013 369.503 391.418C369.503 393.125 368.397 394.53 367.292 395.735C357.655 406.527 351.261 419.815 348.843 434.073C346.425 448.331 348.082 462.981 353.623 476.341C369.402 513.282 418.246 530.548 465.985 514.888C472.317 512.78 478.347 510.17 484.075 507.159C494.829 501.939 504.176 494.711 511.814 486.38C524.124 473.993 532.212 458.047 534.93 440.806ZM455.533 348.455C452.883 344.598 451.1 340.215 450.307 335.606C448.297 325.969 448.498 319.043 454.025 318.139C459.653 317.236 462.266 323.058 464.276 332.594C465.684 339.019 465.382 344.941 463.874 348.354C461.139 348.001 458.369 348.001 455.633 348.354L455.533 348.455ZM407.895 355.983C403.875 354.176 398.749 352.269 392.518 352.57C383.674 353.173 375.935 357.087 373.724 356.786C372.819 356.686 372.417 356.284 372.317 355.782C371.915 354.076 374.528 351.366 377.141 349.458C385.181 343.636 395.633 342.331 404.478 346.146C408.699 347.953 412.719 351.165 414.729 354.477C415.734 355.983 415.834 357.188 415.231 357.79C414.226 358.794 411.814 357.69 407.895 355.983ZM399.854 360.5C406.99 359.697 412.216 363.01 413.422 365.018C413.925 365.821 413.724 366.423 413.623 366.624C413.02 367.628 411.814 367.427 409.201 367.126C403.586 366.244 397.838 366.832 392.518 368.832C392.518 368.832 389.905 369.836 388.699 369.836C388.379 369.836 388.072 369.709 387.846 369.483C387.62 369.257 387.493 368.951 387.493 368.631C387.493 367.628 388.498 366.021 390.005 364.616C391.814 363.01 394.628 361.303 399.854 360.601V360.5ZM439.452 377.365C435.935 375.658 434.126 372.145 435.432 369.535C436.638 366.925 440.457 366.323 444.075 368.029C447.593 369.736 449.402 373.249 448.096 375.859C446.89 378.368 443.07 379.071 439.452 377.365ZM462.065 357.489C464.98 357.489 467.191 360.802 467.091 364.716C467.091 368.732 464.779 371.743 461.864 371.743C459.05 371.743 456.839 368.531 456.839 364.516C456.839 360.601 459.251 357.489 462.065 357.489ZM313.623 271.361C313.02 271.963 313.824 272.867 314.528 272.365C331.754 260.278 351.31 251.904 371.951 247.774C392.593 243.643 413.869 243.848 434.427 248.374C435.131 248.574 435.633 247.269 434.93 246.868C424.88 241.146 409.402 237.332 398.447 237.231C397.844 237.231 397.543 236.629 397.945 236.227C399.854 233.617 402.367 231.108 404.779 229.201C405.282 228.799 404.98 227.996 404.277 227.996C388.699 229 370.91 236.428 360.659 243.455C360.156 243.856 359.452 243.455 359.653 242.752C360.357 238.938 362.87 233.818 364.176 231.409C364.578 230.907 363.875 230.305 363.372 230.606C344.443 241.052 327.583 254.864 313.623 271.361ZM236.036 353.674C253.221 307.398 281.965 264.636 319.955 235.224C348.196 211.634 378.648 194.669 378.648 194.669C378.648 194.669 362.267 175.597 357.342 174.191C326.89 165.96 261.061 211.433 219.051 271.562C202.066 295.955 177.845 339.119 189.402 361.303C190.809 364.014 198.95 371.041 203.272 374.755C211.026 363.733 222.782 356.169 236.036 353.674ZM258.749 455.462C280.759 451.748 286.488 427.756 282.87 404.267C278.85 377.565 260.759 368.129 248.699 367.527C245.282 367.326 242.166 367.628 239.654 368.129C217.845 372.546 205.583 391.117 207.995 415.309C210.206 436.992 232.116 455.462 252.518 455.964C254.528 455.964 256.639 455.863 258.749 455.462ZM267.091 428.158C268.096 427.857 269.302 427.556 270.106 428.459C270.307 428.76 270.709 429.463 270.206 430.567C269.402 432.474 266.186 434.984 261.664 434.884C256.94 434.482 251.613 431.069 251.01 422.537C250.608 418.321 252.216 413.101 253.221 410.491C254.026 408.571 254.28 406.465 253.957 404.409C253.634 402.353 252.746 400.426 251.392 398.844C250.037 397.263 248.27 396.087 246.286 395.45C244.302 394.812 242.18 394.737 240.156 395.233C237.141 395.935 234.729 397.642 233.121 400.252C231.781 402.436 230.766 404.803 230.106 407.278C229.101 409.989 227.593 410.792 226.488 410.591C225.985 410.591 225.282 410.19 224.779 408.985C223.573 405.572 224.578 396.036 230.91 389.109C232.965 386.877 235.522 385.166 238.371 384.119C241.22 383.071 244.278 382.717 247.292 383.086C253.623 383.99 258.95 387.804 262.166 394.028C266.488 402.259 262.669 410.892 260.357 416.112L259.754 417.618C258.247 421.031 258.146 424.042 259.453 426.05C260.458 427.556 262.267 428.459 264.377 428.459C265.382 428.459 266.287 428.258 267.091 428.158Z" fill="black"/>
</svg>
